<svg xmlns="http://www.w3.org/2000/svg" xmlns:xlink="http://www.w3.org/1999/xlink" width="500" zoomAndPan="magnify" viewBox="0 0 375 374.999991" height="500" preserveAspectRatio="xMidYMid meet" version="1.0"><defs><g/><clipPath id="a4fe47e4c3"><path d="M 274.285156 0 L 323.691406 0 L 323.691406 49.40625 L 274.285156 49.40625 Z M 274.285156 0 " clip-rule="nonzero"/></clipPath><clipPath id="ccdd2305b3"><path d="M 298.988281 0 C 285.34375 0 274.285156 11.058594 274.285156 24.703125 C 274.285156 38.347656 285.34375 49.40625 298.988281 49.40625 C 312.632812 49.40625 323.691406 38.347656 323.691406 24.703125 C 323.691406 11.058594 312.632812 0 298.988281 0 Z M 298.988281 0 " clip-rule="nonzero"/></clipPath><clipPath id="c8bfbe6a13"><path d="M 120.726562 40.25 L 298.988281 40.25 L 298.988281 218.511719 L 120.726562 218.511719 Z M 120.726562 40.25 " clip-rule="nonzero"/></clipPath><clipPath id="72400e8640"><path d="M 209.859375 40.25 C 160.632812 40.25 120.726562 80.15625 120.726562 129.382812 C 120.726562 178.605469 160.632812 218.511719 209.859375 218.511719 C 259.082031 218.511719 298.988281 178.605469 298.988281 129.382812 C 298.988281 80.15625 259.082031 40.25 209.859375 40.25 Z M 209.859375 40.25 " clip-rule="nonzero"/></clipPath><clipPath id="338f9d1968"><path d="M 155.523438 75.046875 L 264.191406 75.046875 L 264.191406 183.71875 L 155.523438 183.71875 Z M 155.523438 75.046875 " clip-rule="nonzero"/></clipPath><clipPath id="c82243df68"><path d="M 209.859375 75.046875 C 179.847656 75.046875 155.523438 99.375 155.523438 129.382812 C 155.523438 159.390625 179.847656 183.71875 209.859375 183.71875 C 239.867188 183.71875 264.191406 159.390625 264.191406 129.382812 C 264.191406 99.375 239.867188 75.046875 209.859375 75.046875 Z M 209.859375 75.046875 " clip-rule="nonzero"/></clipPath><clipPath id="bb0a0b35bd"><path d="M 149.859375 252.214844 L 318.917969 252.214844 L 318.917969 364.917969 L 149.859375 364.917969 Z M 149.859375 252.214844 " clip-rule="nonzero"/></clipPath><clipPath id="93e80c50ee"><path d="M 120.726562 252.460938 L 188.351562 252.460938 L 188.351562 286.273438 L 120.726562 286.273438 Z M 120.726562 252.460938 " clip-rule="nonzero"/></clipPath></defs><g clip-path="url(#a4fe47e4c3)"><g clip-path="url(#ccdd2305b3)"><path fill="#000000" d="M 274.285156 0 L 323.691406 0 L 323.691406 49.40625 L 274.285156 49.40625 Z M 274.285156 0 " fill-opacity="1" fill-rule="nonzero"/></g></g><g clip-path="url(#c8bfbe6a13)"><g clip-path="url(#72400e8640)"><path fill="#000000" d="M 120.726562 40.25 L 298.988281 40.25 L 298.988281 218.511719 L 120.726562 218.511719 Z M 120.726562 40.25 " fill-opacity="1" fill-rule="nonzero"/></g></g><g clip-path="url(#338f9d1968)"><g clip-path="url(#c82243df68)"><path fill="#edeae9" d="M 155.523438 75.046875 L 264.191406 75.046875 L 264.191406 183.71875 L 155.523438 183.71875 Z M 155.523438 75.046875 " fill-opacity="1" fill-rule="nonzero"/></g></g><g clip-path="url(#bb0a0b35bd)"><path fill="#000000" d="M 149.914062 255.96875 L 149.914062 282.269531 C 149.914062 284.34375 151.59375 286.023438 153.667969 286.023438 L 265.511719 286.023438 C 277.695312 286.023438 288.328125 295.363281 288.804688 307.546875 C 289.308594 320.460938 279.082031 331.105469 266.300781 331.105469 C 264.230469 331.105469 262.546875 332.789062 262.546875 334.863281 L 262.546875 361.160156 C 262.546875 363.261719 264.277344 364.921875 266.375 364.917969 C 295.324219 364.878906 318.863281 339.613281 318.863281 308.566406 C 318.863281 277.492188 295.285156 252.214844 266.300781 252.214844 L 153.667969 252.214844 C 151.59375 252.214844 149.914062 253.898438 149.914062 255.96875 Z M 149.914062 255.96875 " fill-opacity="1" fill-rule="nonzero"/></g><g clip-path="url(#93e80c50ee)"><path fill="#000000" d="M 188.425781 252.460938 C 188.425781 271.167969 173.269531 286.328125 154.5625 286.328125 C 135.855469 286.328125 120.753906 271.167969 120.753906 252.460938 Z M 188.425781 252.460938 " fill-opacity="1" fill-rule="nonzero"/></g><g fill="#000000" fill-opacity="1"><g transform="translate(153.574541, 361.569403)"><g><path d="M 19.9375 -34.703125 C 24.988281 -34.703125 28.984375 -33.4375 31.921875 -30.90625 C 34.867188 -28.382812 36.34375 -24.773438 36.34375 -20.078125 L 25.875 -20.078125 C 25.875 -22.054688 25.351562 -23.625 24.3125 -24.78125 C 23.269531 -25.945312 21.789062 -26.53125 19.875 -26.53125 C 17.664062 -26.53125 16.039062 -25.832031 15 -24.4375 C 13.957031 -23.050781 13.4375 -21.117188 13.4375 -18.640625 L 13.4375 -15.46875 C 13.4375 -13.019531 13.957031 -11.09375 15 -9.6875 C 16.039062 -8.28125 17.632812 -7.578125 19.78125 -7.578125 C 21.894531 -7.578125 23.5 -8.125 24.59375 -9.21875 C 25.6875 -10.3125 26.234375 -11.847656 26.234375 -13.828125 L 36.34375 -13.828125 C 36.34375 -9.171875 34.910156 -5.601562 32.046875 -3.125 C 29.191406 -0.644531 25.15625 0.59375 19.9375 0.59375 C 14.113281 0.59375 9.707031 -0.890625 6.71875 -3.859375 C 3.726562 -6.835938 2.234375 -11.238281 2.234375 -17.0625 C 2.234375 -22.875 3.726562 -27.265625 6.71875 -30.234375 C 9.707031 -33.210938 14.113281 -34.703125 19.9375 -34.703125 Z M 19.9375 -34.703125 "/></g></g></g><g fill="#000000" fill-opacity="1"><g transform="translate(192.14156, 361.569403)"><g><path d="M 15.921875 -26.765625 C 19.910156 -26.765625 23.160156 -26.09375 25.671875 -24.75 C 28.191406 -23.414062 29.453125 -21.25 29.453125 -18.25 L 29.453125 -8.03125 C 29.453125 -7.46875 29.582031 -7.003906 29.84375 -6.640625 C 30.113281 -6.273438 30.507812 -6.09375 31.03125 -6.09375 L 32.828125 -6.09375 L 32.828125 -0.390625 C 32.722656 -0.328125 32.460938 -0.21875 32.046875 -0.0625 C 31.640625 0.0820312 31.054688 0.226562 30.296875 0.375 C 29.535156 0.519531 28.660156 0.59375 27.671875 0.59375 C 25.753906 0.59375 24.175781 0.304688 22.9375 -0.265625 C 21.695312 -0.847656 20.84375 -1.648438 20.375 -2.671875 C 19.125 -1.679688 17.71875 -0.890625 16.15625 -0.296875 C 14.601562 0.296875 12.785156 0.59375 10.703125 0.59375 C 4.554688 0.59375 1.484375 -1.851562 1.484375 -6.75 C 1.484375 -9.289062 2.171875 -11.226562 3.546875 -12.5625 C 4.921875 -13.90625 6.894531 -14.820312 9.46875 -15.3125 C 12.050781 -15.8125 15.421875 -16.0625 19.578125 -16.0625 L 19.578125 -17.359375 C 19.578125 -18.378906 19.222656 -19.148438 18.515625 -19.671875 C 17.804688 -20.203125 16.890625 -20.46875 15.765625 -20.46875 C 14.742188 -20.46875 13.859375 -20.285156 13.109375 -19.921875 C 12.367188 -19.566406 12 -18.988281 12 -18.1875 L 12 -18 L 2.28125 -18 C 2.25 -18.164062 2.234375 -18.394531 2.234375 -18.6875 C 2.234375 -21.164062 3.414062 -23.128906 5.78125 -24.578125 C 8.144531 -26.035156 11.523438 -26.765625 15.921875 -26.765625 Z M 19.578125 -11.40625 C 16.773438 -11.40625 14.703125 -11.097656 13.359375 -10.484375 C 12.023438 -9.867188 11.359375 -9.050781 11.359375 -8.03125 C 11.359375 -6.375 12.476562 -5.546875 14.71875 -5.546875 C 16.007812 -5.546875 17.140625 -5.894531 18.109375 -6.59375 C 19.085938 -7.289062 19.578125 -8.148438 19.578125 -9.171875 Z M 19.578125 -11.40625 "/></g></g></g><g fill="#000000" fill-opacity="1"><g transform="translate(225.206089, 361.569403)"><g><path d="M 18.890625 -26.828125 C 19.648438 -26.828125 20.328125 -26.734375 20.921875 -26.546875 C 21.515625 -26.367188 21.8125 -26.265625 21.8125 -26.234375 L 21.8125 -17.953125 L 18.640625 -17.953125 C 16.585938 -17.953125 15.109375 -17.421875 14.203125 -16.359375 C 13.296875 -15.304688 12.84375 -13.738281 12.84375 -11.65625 L 12.84375 0 L 2.96875 0 L 2.96875 -26.171875 L 11.0625 -26.171875 L 11.703125 -22.21875 C 12.296875 -23.726562 13.234375 -24.875 14.515625 -25.65625 C 15.804688 -26.4375 17.265625 -26.828125 18.890625 -26.828125 Z M 18.890625 -26.828125 "/></g></g></g></svg>